HIERARCHY
ROOT Hips
{
	OFFSET 0.000000 83.214638 0.000000
	CHANNELS 6 Xposition Yposition Zposition Xrotation Yrotation Zrotation
	JOINT Pelvis
	{
		OFFSET 0.000000 0.000000 0.000000
		CHANNELS 3 Xrotation Yrotation Zrotation
		JOINT LeftUpLeg
		{
			OFFSET 8.479700 -4.795502 -0.379100
			CHANNELS 3 Xrotation Yrotation Zrotation
			JOINT LeftLeg
			{
				OFFSET 0.024144 -32.555107 0.112900
				CHANNELS 3 Xrotation Yrotation Zrotation
				JOINT LeftFoot
				{
					OFFSET -0.024144 -32.638630 -3.012600
					CHANNELS 3 Xrotation Yrotation Zrotation
					JOINT LeftToeBase
					{
						OFFSET 0.970200 -13.225400 11.864200
						CHANNELS 3 Xrotation Yrotation Zrotation
						End Site
						{
							OFFSET 0.000000 12.319262 0.000000
						}
					}
					JOINT LFootTongue
					{
						OFFSET 1.142400 -1.059800 6.665200
						CHANNELS 3 Xrotation Yrotation Zrotation
						End Site
						{
							OFFSET 0.000000 12.319262 0.000000
						}
					}
				}
				JOINT LeftPantLeg
				{
					OFFSET 0.918482 -16.533964 -2.284700
					CHANNELS 3 Xrotation Yrotation Zrotation
					End Site
					{
						OFFSET 0.350399 24.744368 0.000000
					}
				}
			}
		}
		JOINT RightUpLeg
		{
			OFFSET -8.479700 -4.795502 -0.379100
			CHANNELS 3 Xrotation Yrotation Zrotation
			JOINT RightLeg
			{
				OFFSET -0.023144 -32.555092 0.112900
				CHANNELS 3 Xrotation Yrotation Zrotation
				JOINT RightFoot
				{
					OFFSET 0.023144 -32.638641 -3.012700
					CHANNELS 3 Xrotation Yrotation Zrotation
					JOINT RightToeBase
					{
						OFFSET -0.970200 -13.225400 11.864200
						CHANNELS 3 Xrotation Yrotation Zrotation
						End Site
						{
							OFFSET 0.000000 12.319244 0.000000
						}
					}
					JOINT RFootTongue
					{
						OFFSET -1.142200 -1.059800 6.665200
						CHANNELS 3 Xrotation Yrotation Zrotation
						End Site
						{
							OFFSET 0.000000 12.319243 0.000000
						}
					}
				}
				JOINT RightPantLeg
				{
					OFFSET -0.919482 -16.533978 -2.284800
					CHANNELS 3 Xrotation Yrotation Zrotation
					End Site
					{
						OFFSET -0.350400 24.744419 0.000000
					}
				}
			}
		}
	}
	JOINT Spine
	{
		OFFSET 0.000000 7.722000 1.166200
		CHANNELS 3 Xrotation Yrotation Zrotation
		JOINT Spine1
		{
			OFFSET 0.000000 12.024101 0.248800
			CHANNELS 3 Xrotation Yrotation Zrotation
			JOINT Spine2
			{
				OFFSET 0.000000 11.502998 -0.491200
				CHANNELS 3 Xrotation Yrotation Zrotation
				JOINT Neck
				{
					OFFSET 0.000000 18.430702 -3.123100
					CHANNELS 3 Xrotation Yrotation Zrotation
					JOINT Head
					{
						OFFSET 0.000000 9.051102 1.034000
						CHANNELS 3 Xrotation Yrotation Zrotation
						JOINT HairB
						{
							OFFSET 0.208400 24.786102 24.822300
							CHANNELS 3 Xrotation Yrotation Zrotation
							End Site
							{
								OFFSET 0.000000 32.263779 0.000000
							}
						}
						JOINT HairA
						{
							OFFSET -7.081100 24.428299 23.196600
							CHANNELS 3 Xrotation Yrotation Zrotation
							End Site
							{
								OFFSET 0.000000 32.263779 0.000000
							}
						}
						JOINT Hat
						{
							OFFSET 16.728800 15.048294 -15.439601
							CHANNELS 3 Xrotation Yrotation Zrotation
							End Site
							{
								OFFSET 0.000000 32.263779 0.000000
							}
						}
					}
				}
				JOINT LeftShoulder
				{
					OFFSET 6.197800 13.665199 -4.064700
					CHANNELS 3 Xrotation Yrotation Zrotation
					JOINT LeftArm
					{
						OFFSET 7.778100 -0.187103 -1.709300
						CHANNELS 3 Xrotation Yrotation Zrotation
						JOINT LeftForeArm
						{
							OFFSET 22.049376 0.000000 0.000000
							CHANNELS 3 Xrotation Yrotation Zrotation
							JOINT LeftHand
							{
								OFFSET 23.009392 0.000000 0.000000
								CHANNELS 3 Xrotation Yrotation Zrotation
								JOINT LeftHandThumb1
								{
									OFFSET 3.507191 -2.063065 3.133727
									CHANNELS 3 Xrotation Yrotation Zrotation
									JOINT LeftHandThumb2
									{
										OFFSET 3.101337 -1.790558 1.790558
										CHANNELS 3 Xrotation Yrotation Zrotation
										JOINT LeftHandThumb3
										{
											OFFSET 3.058640 -1.765907 1.765906
											CHANNELS 3 Xrotation Yrotation Zrotation
											End Site
											{
												OFFSET -0.415260 3.926476 -0.049563
											}
										}
									}
								}
								JOINT LeftHandIndex1
								{
									OFFSET 11.334419 -0.901459 3.706815
									CHANNELS 3 Xrotation Yrotation Zrotation
									JOINT LeftHandIndex2
									{
										OFFSET 3.283112 0.000000 0.000000
										CHANNELS 3 Xrotation Yrotation Zrotation
										JOINT LeftHandIndex3
										{
											OFFSET 3.323853 0.000000 0.000000
											CHANNELS 3 Xrotation Yrotation Zrotation
											End Site
											{
												OFFSET -1.135597 3.097809 0.402452
											}
										}
									}
								}
								JOINT LeftHandMiddle1
								{
									OFFSET 11.335861 0.000000 0.000000
									CHANNELS 3 Xrotation Yrotation Zrotation
									JOINT LeftHandMiddle2
									{
										OFFSET 3.410492 0.000000 0.000000
										CHANNELS 3 Xrotation Yrotation Zrotation
										JOINT LeftHandMiddle3
										{
											OFFSET 3.312172 0.000000 0.000000
											CHANNELS 3 Xrotation Yrotation Zrotation
											End Site
											{
												OFFSET -1.150200 3.080154 0.400270
											}
										}
									}
								}
								JOINT LeftHandRing1
								{
									OFFSET 11.514786 -0.013176 -3.003090
									CHANNELS 3 Xrotation Yrotation Zrotation
									JOINT LeftHandRing2
									{
										OFFSET 3.053307 0.000000 0.000000
										CHANNELS 3 Xrotation Yrotation Zrotation
										JOINT LeftHandRing3
										{
											OFFSET 3.295807 0.000000 0.000000
											CHANNELS 3 Xrotation Yrotation Zrotation
											End Site
											{
												OFFSET -1.281006 3.013344 0.375733
											}
										}
									}
								}
								JOINT LeftHandPinky1
								{
									OFFSET 10.518692 -0.960396 -5.730441
									CHANNELS 3 Xrotation Yrotation Zrotation
									JOINT LeftHandPinky2
									{
										OFFSET 2.861649 0.000000 0.000000
										CHANNELS 3 Xrotation Yrotation Zrotation
										JOINT LeftHandPinky3
										{
											OFFSET 2.863380 0.000000 0.000000
											CHANNELS 3 Xrotation Yrotation Zrotation
											End Site
											{
												OFFSET -0.843597 2.711159 0.369971
											}
										}
									}
								}
							}
							JOINT LSleeve
							{
								OFFSET 6.676277 -0.344902 -1.011730
								CHANNELS 3 Xrotation Yrotation Zrotation
								End Site
								{
									OFFSET 0.000000 14.885353 0.000000
								}
							}
						}
					}
				}
				JOINT RightShoulder
				{
					OFFSET -6.197800 13.665199 -4.064700
					CHANNELS 3 Xrotation Yrotation Zrotation
					JOINT RightArm
					{
						OFFSET -7.778100 -0.187103 -1.709300
						CHANNELS 3 Xrotation Yrotation Zrotation
						JOINT RightForeArm
						{
							OFFSET -22.049376 0.000000 0.000000
							CHANNELS 3 Xrotation Yrotation Zrotation
							JOINT RightHand
							{
								OFFSET -23.009392 0.000000 0.000000
								CHANNELS 3 Xrotation Yrotation Zrotation
								JOINT RightHandThumb1
								{
									OFFSET -3.507191 -2.063065 3.133727
									CHANNELS 3 Xrotation Yrotation Zrotation
									JOINT RightHandThumb2
									{
										OFFSET -3.101337 -1.790558 1.790558
										CHANNELS 3 Xrotation Yrotation Zrotation
										JOINT RightHandThumb3
										{
											OFFSET -3.058640 -1.765907 1.765906
											CHANNELS 3 Xrotation Yrotation Zrotation
											End Site
											{
												OFFSET 0.415260 3.926476 -0.049563
											}
										}
									}
								}
								JOINT RightHandIndex1
								{
									OFFSET -11.334419 -0.901459 3.706815
									CHANNELS 3 Xrotation Yrotation Zrotation
									JOINT RightHandIndex2
									{
										OFFSET -3.283112 0.000000 0.000000
										CHANNELS 3 Xrotation Yrotation Zrotation
										JOINT RightHandIndex3
										{
											OFFSET -3.323853 0.000000 0.000000
											CHANNELS 3 Xrotation Yrotation Zrotation
											End Site
											{
												OFFSET 1.135597 3.097809 0.402452
											}
										}
									}
								}
								JOINT RightHandMiddle1
								{
									OFFSET -11.335861 0.000000 0.000000
									CHANNELS 3 Xrotation Yrotation Zrotation
									JOINT RightHandMiddle2
									{
										OFFSET -3.410492 0.000000 0.000000
										CHANNELS 3 Xrotation Yrotation Zrotation
										JOINT RightHandMiddle3
										{
											OFFSET -3.312172 0.000000 0.000000
											CHANNELS 3 Xrotation Yrotation Zrotation
											End Site
											{
												OFFSET 1.150200 3.080154 0.400270
											}
										}
									}
								}
								JOINT RightHandRing1
								{
									OFFSET -11.514786 -0.013176 -3.003090
									CHANNELS 3 Xrotation Yrotation Zrotation
									JOINT RightHandRing2
									{
										OFFSET -3.053307 0.000000 0.000000
										CHANNELS 3 Xrotation Yrotation Zrotation
										JOINT RightHandRing3
										{
											OFFSET -3.295807 0.000000 0.000000
											CHANNELS 3 Xrotation Yrotation Zrotation
											End Site
											{
												OFFSET 1.281006 3.013344 0.375733
											}
										}
									}
								}
								JOINT RightHandPinky1
								{
									OFFSET -10.518692 -0.960396 -5.730441
									CHANNELS 3 Xrotation Yrotation Zrotation
									JOINT RightHandPinky2
									{
										OFFSET -2.861649 0.000000 0.000000
										CHANNELS 3 Xrotation Yrotation Zrotation
										JOINT RightHandPinky3
										{
											OFFSET -2.863380 0.000000 0.000000
											CHANNELS 3 Xrotation Yrotation Zrotation
											End Site
											{
												OFFSET 0.843597 2.711159 0.369971
											}
										}
									}
								}
							}
							JOINT RSleeve
							{
								OFFSET -6.676277 -0.344902 -1.011730
								CHANNELS 3 Xrotation Yrotation Zrotation
								End Site
								{
									OFFSET 0.000000 14.885353 0.000000
								}
							}
						}
					}
				}
				JOINT Backpack
				{
					OFFSET 0.000000 -2.471497 36.677502
					CHANNELS 3 Xrotation Yrotation Zrotation
					End Site
					{
						OFFSET 0.000000 20.427315 0.000000
					}
				}
				JOINT Hood
				{
					OFFSET 0.000000 18.754097 -10.431000
					CHANNELS 3 Xrotation Yrotation Zrotation
					JOINT Hood1
					{
						OFFSET 0.000000 -5.011002 -7.685901
						CHANNELS 3 Xrotation Yrotation Zrotation
						End Site
						{
							OFFSET 0.000000 9.175140 0.000000
						}
					}
				}
				JOINT LHoodieString
				{
					OFFSET 5.250500 16.397697 3.089900
					CHANNELS 3 Xrotation Yrotation Zrotation
					JOINT LHoodieString1
					{
						OFFSET 0.257700 -6.364304 3.694600
						CHANNELS 3 Xrotation Yrotation Zrotation
						JOINT LHoodieString2
						{
							OFFSET 0.000000 -9.643799 2.679100
							CHANNELS 3 Xrotation Yrotation Zrotation
							End Site
							{
								OFFSET 0.000000 10.009018 0.000000
							}
						}
					}
				}
				JOINT RHoodieString
				{
					OFFSET -5.250500 16.397697 3.089900
					CHANNELS 3 Xrotation Yrotation Zrotation
					JOINT RHoodieString1
					{
						OFFSET -0.257700 -6.364304 3.694600
						CHANNELS 3 Xrotation Yrotation Zrotation
						JOINT RHoodieString2
						{
							OFFSET 0.000000 -9.643799 2.679100
							CHANNELS 3 Xrotation Yrotation Zrotation
							End Site
							{
								OFFSET 0.000000 10.009018 0.000000
							}
						}
					}
				}
			}
			JOINT LBackpack_Strap
			{
				OFFSET 15.223200 -7.719803 -6.610900
				CHANNELS 3 Xrotation Yrotation Zrotation
				End Site
				{
					OFFSET 0.000000 16.040596 0.000000
				}
			}
			JOINT RBackpack_Strap
			{
				OFFSET -15.223000 -7.719803 -6.610900
				CHANNELS 3 Xrotation Yrotation Zrotation
				End Site
				{
					OFFSET 0.000000 16.040596 0.000000
				}
			}
		}
	}
	JOINT BoyFacialAnim_Joint
	{
		OFFSET 1.000000 -82.208099 -1.550900
		CHANNELS 3 Xrotation Yrotation Zrotation
		End Site
		{
			OFFSET 0.000000 30.012791 0.000000
		}
	}
}
MOTION
Frames: 4
Frame Time: 0.016667
-0.351668 68.661606 0.143331 7.173986 -59.264486 0.006973 0.000000 0.000002 -0.000000 -52.153439 -15.287367 30.676213 35.140125 -7.084176 -0.198578 21.797924 0.482997 -4.391520 0.000001 -0.000000 -0.000001 0.000001 -0.000000 -0.000001 -0.000001 0.000000 0.000001 -54.346053 -2.692863 -14.547379 64.615768 0.728162 -0.005977 -3.893898 -0.653337 8.448794 -0.000000 -0.000001 -0.000000 -0.000000 -0.000001 -0.000000 0.000000 0.000002 -0.000001 4.840833 10.960024 0.801017 6.079589 5.798313 -0.521033 5.085130 16.136083 1.189172 6.289641 5.421248 -4.908952 -11.393625 17.889737 5.359091 0.000000 -0.000001 0.000000 0.000000 -0.000001 0.000000 0.000000 -0.000001 0.000000 3.544249 4.756013 -11.623019 -54.038841 -33.116418 -50.381552 0.000026 -81.882357 0.000042 -58.768402 25.992623 38.870316 -14.557461 10.837952 12.229975 0.749543 -4.257884 13.305500 -0.000001 0.000002 -0.000001 -0.809542 2.578184 -31.496434 3.095914 5.163773 -61.866972 -0.000001 0.000000 -0.000004 -2.430838 1.729207 -41.460922 2.952359 5.084730 -60.259931 -0.000000 -0.000001 0.000004 -6.054132 -0.166572 -49.857567 3.046251 5.137028 -61.313946 -0.000001 -0.000000 -0.000002 -8.298315 -6.522667 -38.520139 2.848780 5.024404 -59.084415 0.000000 0.000000 -0.000002 -0.000001 0.000000 0.000000 -14.733700 2.115969 -4.463088 72.337550 138.834031 -52.653522 -0.000008 29.080733 0.000008 -49.752447 -7.371301 -31.498736 8.377139 -4.904131 11.021988 21.620202 -18.183888 -18.379197 0.000001 -0.000000 -0.000005 0.558930 -4.406595 25.436666 1.653063 -3.560334 49.799087 0.000001 0.000000 0.000005 10.969805 -12.875582 52.800839 6.387585 -4.324410 111.833665 -0.000001 0.000000 0.000002 3.705096 -7.151326 57.622440 5.328210 -4.608674 98.293416 -0.000003 -0.000003 0.000004 0.474811 -5.172975 58.987665 3.194318 -4.421952 71.674154 0.000000 -0.000001 -0.000005 0.000000 -0.000001 -0.000000 0.000001 0.000002 -0.000001 0.000001 0.000002 -0.000001 0.000001 0.000002 -0.000001 0.000001 0.000002 -0.000001 0.000001 0.000002 -0.000000 -0.000001 0.000002 -0.000001 0.000001 0.000002 -0.000001 0.000001 0.000002 -0.000000 -0.000001 0.000002 -0.000001 -0.000000 -0.000000 -0.000000 -0.000000 -0.000000 -0.000000 0.000000 0.000002 -0.000000 
-0.596982 69.631035 -3.342193 8.671005 -60.165026 0.934212 0.000000 0.000001 0.000000 -55.968179 -15.236832 27.335911 43.770618 -4.199293 -0.080685 14.506162 0.015482 -4.675816 0.000000 -0.000001 0.000001 0.000000 -0.000001 0.000001 -0.000001 -0.000001 0.000003 -55.723545 -5.032332 -11.720667 61.903548 0.285685 0.012611 1.414842 -0.300182 9.129458 0.000001 -0.000001 0.000000 0.000001 -0.000001 0.000000 -0.000000 -0.000000 0.000000 4.987715 10.793095 1.201980 6.266322 5.663343 -0.193639 5.219011 15.988008 1.524878 6.117313 5.473307 -4.875346 -11.907631 18.231196 4.903863 -0.000001 0.000000 -0.000000 -0.000001 0.000000 -0.000000 -0.000001 0.000000 -0.000000 3.410880 4.228994 -11.245755 -53.679720 -32.244585 -50.209602 0.000482 -82.808278 0.000491 -57.769972 25.806934 38.829086 -14.557459 10.837953 12.229976 0.749545 -4.257890 13.305500 0.000001 -0.000000 -0.000001 -0.809543 2.578186 -31.496434 3.095914 5.163773 -61.866979 0.000000 0.000000 -0.000002 -2.430839 1.729207 -41.460922 2.952360 5.084730 -60.259931 -0.000001 -0.000000 0.000000 -6.054131 -0.166571 -49.857567 3.046248 5.137031 -61.313939 -0.000002 0.000000 -0.000000 -8.298313 -6.522668 -38.520139 2.848778 5.024402 -59.084422 -0.000000 0.000001 0.000002 -0.000001 0.000003 0.000001 -14.874839 3.395349 -4.575096 74.932421 137.222052 -55.175142 -0.000005 32.460662 0.000012 -50.128592 -7.281817 -32.986057 8.377139 -4.904131 11.021991 21.620197 -18.183890 -18.379196 0.000002 0.000002 -0.000002 0.558927 -4.406596 25.436666 1.653064 -3.560334 49.799087 -0.000001 0.000001 0.000002 10.969805 -12.875584 52.800835 6.387589 -4.324406 111.833658 -0.000000 0.000000 -0.000002 3.705095 -7.151326 57.622447 5.328210 -4.608675 98.293416 -0.000002 -0.000000 0.000002 0.474811 -5.172976 58.987658 3.194316 -4.421951 71.674154 0.000001 0.000000 0.000002 0.000000 -0.000001 0.000000 -0.000000 -0.000001 0.000000 -0.000000 -0.000001 0.000000 -0.000000 -0.000001 0.000000 -0.000000 -0.000001 0.000000 -0.000000 -0.000001 0.000000 -0.000000 0.000000 0.000000 -0.000000 -0.000001 0.000000 -0.000000 -0.000001 0.000000 -0.000000 0.000000 0.000000 -0.000001 0.000000 -0.000000 -0.000001 0.000000 -0.000000 0.000000 0.000001 0.000000 
-0.769637 70.776222 -6.809226 11.052790 -61.516208 2.652178 -0.000000 0.000001 0.000000 -59.213642 -14.227808 23.821058 50.740867 -2.249428 -0.002578 8.497363 -0.174315 -5.578306 -0.000000 0.000001 -0.000000 -0.000000 0.000001 -0.000000 0.000000 -0.000001 -0.000000 -56.462841 -7.641616 -8.357754 58.555492 0.135348 0.012959 3.958861 0.283444 8.296151 -0.000000 0.000002 -0.000000 -0.000000 0.000002 -0.000000 0.000000 -0.000001 -0.000000 5.024959 10.749034 1.392486 6.308407 5.733788 0.124732 5.204268 16.033845 1.859609 6.010198 5.497598 -4.746239 -12.496671 18.583674 4.459512 -0.000001 0.000000 0.000000 -0.000001 0.000000 0.000000 -0.000001 0.000000 0.000000 3.342832 3.885604 -11.068019 -52.875793 -31.812415 -49.380608 -0.000380 -83.745346 -0.000376 -57.807490 26.117726 39.099001 -14.557461 10.837952 12.229975 0.749544 -4.257884 13.305501 -0.000001 0.000000 -0.000001 -0.809543 2.578186 -31.496441 3.095914 5.163774 -61.866972 0.000000 -0.000000 -0.000004 -2.430838 1.729208 -41.460922 2.952359 5.084729 -60.259925 0.000001 0.000000 0.000000 -6.054131 -0.166570 -49.857570 3.046248 5.137030 -61.313946 -0.000001 -0.000001 0.000001 -8.298316 -6.522663 -38.520139 2.848780 5.024403 -59.084422 0.000001 0.000000 -0.000000 -0.000000 0.000000 -0.000001 -14.973897 4.793932 -4.441296 77.819248 135.933223 -57.695708 0.000001 35.490032 -0.000004 -50.675219 -7.755452 -34.661721 8.377141 -4.904131 11.021989 21.620201 -18.183891 -18.379197 0.000002 -0.000001 0.000001 0.558929 -4.406595 25.436664 1.653062 -3.560332 49.799083 -0.000000 -0.000001 0.000003 10.969804 -12.875584 52.800835 6.387586 -4.324409 111.833665 0.000000 0.000000 0.000003 3.705098 -7.151323 57.622440 5.328211 -4.608674 98.293423 -0.000002 0.000001 -0.000003 0.474811 -5.172975 58.987665 3.194316 -4.421953 71.674161 0.000000 -0.000002 0.000003 -0.000001 0.000000 -0.000001 0.000001 -0.000001 0.000000 0.000001 -0.000001 0.000000 0.000001 -0.000001 0.000000 0.000001 -0.000001 0.000000 0.000001 -0.000001 -0.000000 -0.000001 -0.000001 -0.000000 0.000001 -0.000001 0.000000 0.000001 -0.000001 -0.000000 -0.000001 -0.000001 -0.000000 0.000001 0.000003 -0.000001 0.000001 0.000003 -0.000001 -0.000000 0.000001 0.000000 
-0.921566 72.016113 -10.268430 14.340059 -63.246684 5.425530 0.000000 -0.000001 0.000000 -61.855648 -11.995802 20.536270 55.189694 -1.593881 0.018585 4.596396 -0.124218 -7.224925 -0.000000 -0.000001 -0.000001 -0.000000 -0.000001 -0.000000 0.000001 0.000002 -0.000000 -56.940026 -9.172113 -6.019077 55.057759 1.375819 0.096011 5.252195 0.767125 14.352802 -0.000000 -0.000001 -0.000001 -0.000000 -0.000001 -0.000001 0.000000 0.000002 0.000000 4.999546 10.745229 1.217155 6.230978 6.000051 0.369758 5.078932 16.267957 2.126723 5.962560 5.490729 -4.561730 -13.126854 18.849121 4.125947 0.000001 0.000000 0.000000 0.000001 0.000000 0.000000 0.000001 0.000000 0.000000 3.352114 3.739657 -11.139683 -51.775894 -31.735419 -48.041522 -0.000162 -84.599666 -0.000064 -58.433867 26.314970 39.463515 -14.557461 10.837951 12.229975 0.749545 -4.257886 13.305501 0.000001 -0.000001 0.000001 -0.809541 2.578184 -31.496437 3.095913 5.163772 -61.866966 0.000000 -0.000000 -0.000000 -2.430837 1.729206 -41.460922 2.952359 5.084730 -60.259931 -0.000000 -0.000000 0.000000 -6.054131 -0.166574 -49.857567 3.046248 5.137029 -61.313939 -0.000001 0.000001 -0.000002 -8.298314 -6.522666 -38.520143 2.848779 5.024403 -59.084422 -0.000000 0.000000 0.000001 0.000001 0.000001 -0.000002 -15.042383 6.381671 -4.115087 80.832932 134.974428 -60.173325 0.000010 38.062028 -0.000018 -50.934845 -8.384239 -36.240338 8.377139 -4.904131 11.021990 21.620202 -18.183888 -18.379196 0.000002 -0.000002 -0.000003 0.558928 -4.406595 25.436664 1.653064 -3.560332 49.799087 0.000001 0.000001 0.000000 10.969807 -12.875581 52.800839 6.387586 -4.324410 111.833658 -0.000000 0.000000 -0.000007 3.705095 -7.151325 57.622440 5.328212 -4.608675 98.293416 -0.000001 0.000001 0.000000 0.474813 -5.172974 58.987665 3.194316 -4.421952 71.674154 -0.000000 0.000001 0.000002 -0.000000 -0.000002 -0.000002 -0.000000 0.000002 -0.000002 -0.000000 0.000002 -0.000002 -0.000000 0.000002 -0.000002 -0.000000 0.000002 -0.000002 -0.000000 0.000002 -0.000001 -0.000001 0.000000 0.000000 -0.000000 0.000002 -0.000002 -0.000000 0.000002 -0.000001 -0.000001 0.000000 0.000000 0.000002 0.000001 -0.000000 0.000002 0.000001 -0.000000 0.000000 -0.000001 0.000000 
